<?xml version="1.0" encoding="utf-8"?>
<!-- Generator: Adobe Illustrator 16.0.0, SVG Export Plug-In . SVG Version: 6.00 Build 0)  -->
<!DOCTYPE svg PUBLIC "-//W3C//DTD SVG 1.1//EN" "http://www.w3.org/Graphics/SVG/1.1/DTD/svg11.dtd">
<svg version="1.1" id="Layer_1" xmlns="http://www.w3.org/2000/svg" xmlns:xlink="http://www.w3.org/1999/xlink" x="0px" y="0px"
	 width="24px" height="24px" viewBox="0 0 24 24" enable-background="new 0 0 24 24" xml:space="preserve">
<g>
	<g>
		<path fill="#19F6AA" d="M18.588,19.575c-0.061-0.24-0.098-0.547,0.006-0.778c0.034-0.077,0.139-0.311,0.655-0.453l0.772-0.214
			l-0.337-0.729c-0.812-1.774-0.062-4.938,0.049-5.241c-0.006,0.018-0.015,0.032-0.02,0.041c0.018-0.029,1.326-3.382-2.797-6.864
			c-1.77-1.494-2.438-1.826-2.881-2.046c-0.361-0.179-0.527-0.261-1.472-1.376l-0.692-0.823l-0.446,0.982
			c-0.582,1.283-0.596,2.199-0.463,2.795c-0.465,0.173-1.11,0.435-1.791,0.781c-1.765,0.897-2.879,1.9-3.319,2.985
			c-1.036,1.41-2.387,2.045-2.398,2.05l-0.049,0.026c-0.222,0.124-0.473,0.389-0.51,0.75c-0.019,0.185,0.011,0.545,0.397,0.87
			l0.047,0.035c0.012,0.009,1.202,0.854,1.823,1.786c0.28,0.421,0.692,0.654,1.155,0.654c0.372,0,0.662-0.154,0.757-0.213
			c0.538-0.306,1.927-1.005,3.048-1.244c-2.599,2.272-3.23,4.636-3.303,6.226H5.465V24h14.968v-4.425H18.588z M12.193,13.473
			l0.689-0.479l-0.608-0.579c-0.355-0.34-0.851-0.51-1.475-0.51c-1.767,0-4.309,1.449-4.416,1.511l0.002-0.007L6.36,13.427
			c-0.01,0.005-0.021,0.011-0.03,0.013c-0.01-0.011-0.019-0.021-0.036-0.046c-0.493-0.737-1.228-1.397-1.704-1.785
			c0.61-0.376,1.599-1.103,2.419-2.251l0.054-0.075l0.033-0.086c0.594-1.618,3.789-2.908,4.972-3.268l1.236-0.309l-0.92-0.797
			c-0.044-0.072-0.215-0.42-0.07-1.141c0.485,0.503,0.738,0.643,1.117,0.832c0.386,0.189,0.963,0.477,2.604,1.865
			c3.239,2.732,2.454,5.224,2.443,5.25c0.009-0.016,0.014-0.028,0.018-0.038c-0.111,0.22-0.977,3.35-0.292,5.717
			c-0.478,0.278-0.728,0.641-0.858,0.935c-0.2,0.454-0.211,0.929-0.149,1.328H8.184C8.336,16.59,10.72,14.494,12.193,13.473z
			 M19.066,22.635H6.83V20.94h0.033h12.204V22.635L19.066,22.635z"/>
	</g>
</g>
</svg>
