<?xml version="1.0" encoding="utf-8"?>
<!-- Generator: Adobe Illustrator 16.0.0, SVG Export Plug-In . SVG Version: 6.00 Build 0)  -->
<!DOCTYPE svg PUBLIC "-//W3C//DTD SVG 1.1//EN" "http://www.w3.org/Graphics/SVG/1.1/DTD/svg11.dtd">
<svg version="1.1" id="Layer_1" xmlns="http://www.w3.org/2000/svg" xmlns:xlink="http://www.w3.org/1999/xlink" x="0px" y="0px"
	 width="24px" height="24px" viewBox="0 0 24 24" enable-background="new 0 0 24 24" xml:space="preserve">
<path fill="#19F6AA" d="M19.391,17.098c0.352,0.112,0.526,0.497,0.385,0.832c-0.135,0.319-0.494,0.482-0.826,0.375
	c-2.617-0.855-4.357-2.074-5.285-3.693c-0.178-0.309-0.068-0.7,0.243-0.875c0.311-0.176,0.706-0.067,0.883,0.24
	C15.561,15.318,17.075,16.35,19.391,17.098z M10.801,16.486c-0.849,0.49-2.271,1.314-5.227,2.186
	c-0.41,0.121-0.597,0.592-0.382,0.956C5.316,19.857,5.614,20,5.909,19.913c2.703-0.793,4.203-1.558,5.142-2.087
	c0.933-0.526,1.02-0.535,1.904,0.109c0.855,0.627,2.311,1.537,4.895,2.478c0.295,0.106,0.61-0.024,0.746-0.249
	c0.229-0.35,0.071-0.821-0.324-0.965c-3.082-1.124-4.426-2.186-5.094-2.715C12.312,15.799,12.022,15.779,10.801,16.486z
	 M10.538,19.555c-0.638,0.327-1.6,0.821-3.251,1.393c-0.215,0.074-0.375,0.252-0.425,0.472c-0.108,0.476,0.343,0.915,0.79,0.763
	c1.772-0.607,2.803-1.139,3.482-1.488c0.518-0.267,0.835-0.32,1.429,0c0.752,0.404,1.938,1.041,3.594,1.705
	c0.468,0.188,0.945-0.227,0.855-0.715c-0.039-0.221-0.191-0.404-0.4-0.49c-1.578-0.635-2.711-1.243-3.432-1.631
	C12.047,18.954,11.915,18.846,10.538,19.555z M9.844,22.805c-0.228,0.105-0.369,0.336-0.358,0.586C9.503,23.777,9.854,24,10.179,24
	c0.091,0,0.181-0.018,0.26-0.055c1.7-0.793,1.11-0.84,3.027,0.005c0.076,0.034,0.161,0.05,0.25,0.05c0.32,0,0.677-0.212,0.698-0.604
	c0.014-0.256-0.135-0.492-0.37-0.597C11.548,21.705,12.217,21.704,9.844,22.805z M12.198,8.598c0.139-0.327-0.017-0.704-0.346-0.841
	c-0.33-0.137-0.709,0.016-0.848,0.343c-1.058,2.498-3.731,4.423-7.253,5.273c-0.335,0.081-0.551,0.404-0.495,0.741
	c0.06,0.36,0.417,0.598,0.78,0.511C7.505,13.792,10.82,11.852,12.198,8.598z M12.846,12.734c0.821-0.933,1.475-1.965,1.943-3.071
	c0.47-1.111,0.389-2.231-0.229-3.153c-0.646-0.964-1.814-1.562-3.051-1.562c-0.698,0-1.37,0.192-1.944,0.555
	C8.939,5.9,8.444,6.497,8.134,7.228C7.487,8.755,5.79,9.983,3.48,10.639C3.192,10.721,2.995,10.984,3,11.282
	c0.007,0.416,0.41,0.711,0.813,0.597c2.7-0.766,4.714-2.263,5.515-4.153c0.444-1.05,1.322-1.494,2.182-1.494
	c1.428,0,2.811,1.224,2.086,2.935c-1.53,3.612-5.111,5.937-9.158,6.958c-0.178,0.045-0.33,0.162-0.417,0.323
	s-0.104,0.351-0.044,0.522c0.107,0.311,0.436,0.485,0.755,0.405c1.984-0.499,3.819-1.28,5.372-2.294
	C11.152,14.396,12.074,13.607,12.846,12.734z M7.026,6.534C7.319,6.033,7.597,5.56,8.075,5.12c1.13-1.041,2.662-1.543,4.204-1.379
	c1.454,0.155,2.735,0.882,3.514,1.993c1.08,1.539,0.809,3.067,0.547,4.544c-0.225,1.263-0.456,2.57,0.264,3.712
	c0.543,0.863,1.57,1.518,3.176,2.006c0.34,0.104,0.699-0.098,0.785-0.439c0.088-0.345-0.112-0.695-0.455-0.802
	c-1.246-0.382-2.041-0.86-2.407-1.444c-0.457-0.726-0.285-1.69-0.087-2.81c0.279-1.571,0.625-3.526-0.76-5.5
	c-0.994-1.417-2.61-2.341-4.438-2.536C10.504,2.26,8.6,2.885,7.195,4.18C6.575,4.749,6.22,5.354,5.907,5.888
	c-0.493,0.84-0.909,1.546-2.312,2.005C3.373,7.966,3.197,8.154,3.16,8.433C3.1,8.893,3.546,9.26,3.992,9.115
	C5.871,8.501,6.456,7.504,7.026,6.534z M4.966,4.844l0.387-0.572c1.549-2.217,4.286-3.304,7.323-2.909
	c2.887,0.376,5.256,2.014,6.037,4.173c0.691,1.914,0.419,3.459,0.199,4.701c-0.189,1.072-0.354,1.999,0.22,2.742
	c0.233,0.303,0.565,0.535,1.021,0.711c0.381,0.146,0.797-0.105,0.843-0.506c0.034-0.302-0.138-0.59-0.42-0.707
	c-0.195-0.08-0.334-0.173-0.416-0.279c-0.229-0.295-0.116-0.933,0.026-1.739c0.233-1.318,0.553-3.123-0.254-5.357
	C18.801,1.979,15.186,0,11.477,0c-2.466,0-4.86,0.882-6.553,2.746c-0.427,0.478-0.69,0.823-0.945,1.409
	C3.812,4.537,3.877,4.813,4.157,5.003C4.432,5.19,4.784,5.118,4.966,4.844z"/>
</svg>
