<?xml version="1.0" encoding="utf-8"?>
<!-- Generator: Adobe Illustrator 16.0.0, SVG Export Plug-In . SVG Version: 6.00 Build 0)  -->
<!DOCTYPE svg PUBLIC "-//W3C//DTD SVG 1.1//EN" "http://www.w3.org/Graphics/SVG/1.1/DTD/svg11.dtd">
<svg version="1.1" id="Layer_1" xmlns="http://www.w3.org/2000/svg" xmlns:xlink="http://www.w3.org/1999/xlink" x="0px" y="0px"
	 width="24px" height="24px" viewBox="0 0 24 24" enable-background="new 0 0 24 24" xml:space="preserve">
<path fill="#19F6AA" d="M21,3c0-1.657-1.343-3-3-3s-3,1.343-3,3c0,1.323,0.861,2.433,2.05,2.832
	c0.168,4.295-2.021,4.764-4.998,5.391C10.343,11.583,8.41,11.998,7,13.309V5.816C8.163,5.403,9,4.305,9,3c0-1.657-1.343-3-3-3
	S3,1.343,3,3c0,1.305,0.837,2.403,2,2.816v12.368C3.837,18.598,3,19.695,3,21c0,1.657,1.343,3,3,3s3-1.343,3-3
	c0-1.295-0.824-2.389-1.973-2.809c0.27-3.922,2.57-4.407,5.437-5.012c3.038-0.64,6.774-1.442,6.579-7.377
	C20.184,5.378,21,4.289,21,3z M4.2,3c0-0.993,0.807-1.8,1.8-1.8S7.8,2.007,7.8,3S6.993,4.8,6,4.8S4.2,3.993,4.2,3z M7.8,21
	c0,0.993-0.807,1.8-1.8,1.8S4.2,21.993,4.2,21s0.807-1.8,1.8-1.8S7.8,20.007,7.8,21z"/>
</svg>
