<?xml version="1.0" encoding="utf-8"?>
<!-- Generator: Adobe Illustrator 16.0.0, SVG Export Plug-In . SVG Version: 6.00 Build 0)  -->
<!DOCTYPE svg PUBLIC "-//W3C//DTD SVG 1.1//EN" "http://www.w3.org/Graphics/SVG/1.1/DTD/svg11.dtd">
<svg version="1.1" id="Layer_1" xmlns="http://www.w3.org/2000/svg" xmlns:xlink="http://www.w3.org/1999/xlink" x="0px" y="0px"
	 width="24px" height="24px" viewBox="0 0 24 24" enable-background="new 0 0 24 24" xml:space="preserve">
<path fill="#19F6AA" d="M10,8V0h2v8.672L10,8z M0,0h8v24H0V0z M2,2v20h4v-2H4v-1h2v-2H3v-1h3v-2H4v-1h2v-2H4v-1h2V8H3V7h3V5H4V4h2V2
	H2z M14.26,11.398L10,10l1.432,4.227L14.26,11.398z M24,21.172L21.172,24l-8.554-8.587l2.827-2.828L24,21.172z"/>
</svg>
