<?xml version="1.0" encoding="utf-8"?>
<!-- Generator: Adobe Illustrator 15.1.0, SVG Export Plug-In . SVG Version: 6.00 Build 0)  -->
<!DOCTYPE svg PUBLIC "-//W3C//DTD SVG 1.1//EN" "http://www.w3.org/Graphics/SVG/1.1/DTD/svg11.dtd">
<svg version="1.1" id="Layer_1" xmlns="http://www.w3.org/2000/svg" xmlns:xlink="http://www.w3.org/1999/xlink" x="0px" y="0px"
	 width="652px" height="300px" viewBox="0 0 652 300" enable-background="new 0 0 652 300" xml:space="preserve">
<rect x="107.753" y="240.511" fill="#666666" width="556.366" height="21.207"/>
<g>
	<path fill-rule="evenodd" clip-rule="evenodd" fill="#0038D2" d="M169.592,236.241c-0.103,0.615,0.106,1.163,0.466,1.224
		l18.77,3.119c0.36,0.06,0.735-0.392,0.837-1.007l12.679-76.28c0.102-0.616-0.107-1.164-0.467-1.224l-18.771-3.119
		c-0.36-0.061-0.734,0.391-0.836,1.006L169.592,236.241z"/>
	<g>
		
			<line fill="none" stroke="#FFFFFF" stroke-width="2.5595" stroke-miterlimit="10" x1="202.056" y1="169.25" x2="180.682" y2="165.697"/>
		
			<line fill="none" stroke="#FFFFFF" stroke-width="2.5595" stroke-miterlimit="10" x1="200.99" y1="175.662" x2="179.615" y2="172.109"/>
	</g>
	<g>
		
			<line fill="none" stroke="#FFFFFF" stroke-width="2.5595" stroke-miterlimit="10" x1="192.147" y1="228.861" x2="170.773" y2="225.309"/>
		
			<line fill="none" stroke="#FFFFFF" stroke-width="2.5595" stroke-miterlimit="10" x1="191.083" y1="235.273" x2="169.708" y2="231.721"/>
	</g>
</g>
<g>
	<g>
		
			<rect x="134.125" y="204.659" fill="#69B023" stroke="#231F20" stroke-width="2.5595" stroke-miterlimit="10" width="8.889" height="8.89"/>
		
			<rect x="134.126" y="213.268" fill="#E2021A" stroke="#231F20" stroke-width="2.5595" stroke-miterlimit="10" width="8.889" height="8.89"/>
		
			<rect x="134.125" y="222.228" fill="#009EE0" stroke="#231F20" stroke-width="2.5595" stroke-miterlimit="10" width="8.889" height="8.89"/>
		
			<rect x="143.044" y="204.646" fill="#009EE0" stroke="#231F20" stroke-width="2.5595" stroke-miterlimit="10" width="8.89" height="8.891"/>
		
			<rect x="143.044" y="213.254" fill="#FFFFFF" stroke="#231F20" stroke-width="2.5595" stroke-miterlimit="10" width="8.889" height="8.891"/>
		
			<rect x="143.044" y="222.216" fill="#EC7414" stroke="#231F20" stroke-width="2.5595" stroke-miterlimit="10" width="8.89" height="8.889"/>
		
			<rect x="151.95" y="204.646" fill="#FFED04" stroke="#231F20" stroke-width="2.5595" stroke-miterlimit="10" width="8.89" height="8.891"/>
		
			<rect x="151.951" y="213.254" fill="#EC7414" stroke="#231F20" stroke-width="2.5595" stroke-miterlimit="10" width="8.89" height="8.891"/>
		
			<rect x="151.95" y="222.216" fill="#FFED04" stroke="#231F20" stroke-width="2.5595" stroke-miterlimit="10" width="8.89" height="8.889"/>
	</g>
	
		<rect x="125.599" y="204.646" fill="#FFED04" stroke="#231F20" stroke-width="2.5595" stroke-miterlimit="10" width="8.89" height="8.891"/>
	
		<rect x="125.6" y="213.254" fill="#EC7414" stroke="#231F20" stroke-width="2.5595" stroke-miterlimit="10" width="8.89" height="8.891"/>
	
		<rect x="125.599" y="222.216" fill="#FFED04" stroke="#231F20" stroke-width="2.5595" stroke-miterlimit="10" width="8.89" height="8.889"/>
	
		<rect x="143.322" y="231.301" fill="#009EE0" stroke="#231F20" stroke-width="2.5595" stroke-miterlimit="10" width="8.889" height="8.889"/>
	
		<rect x="134.402" y="231.287" fill="#EC7414" stroke="#231F20" stroke-width="2.5595" stroke-miterlimit="10" width="8.89" height="8.889"/>
	
		<rect x="125.496" y="231.287" fill="#E2021A" stroke="#231F20" stroke-width="2.5595" stroke-miterlimit="10" width="8.89" height="8.889"/>
	
		<rect x="151.846" y="231.287" fill="#FFED04" stroke="#231F20" stroke-width="2.5595" stroke-miterlimit="10" width="8.89" height="8.889"/>
</g>
<path fill-rule="evenodd" clip-rule="evenodd" fill="#00F6B1" d="M202.679,239.331c0,0.771,0.309,1.399,0.689,1.399h19.871
	c0.382,0,0.69-0.628,0.69-1.399V143.65c0-0.773-0.309-1.399-0.69-1.399h-19.871c-0.38,0-0.689,0.626-0.689,1.399V239.331z"/>
<g>
	<path fill-rule="evenodd" clip-rule="evenodd" fill="#F4AF00" d="M223.699,240.929h19.754c0.379,0,0.686-0.553,0.686-1.236v-84.577
		c0-0.683-0.307-1.236-0.686-1.236h-19.754"/>
	
		<line fill="none" stroke="#FFFFFF" stroke-width="2.5595" stroke-miterlimit="10" x1="244.741" y1="163.325" x2="223.489" y2="163.325"/>
	<path fill="none" stroke="#FFFFFF" stroke-width="2.5595" stroke-miterlimit="10" d="M224.392,169.43"/>
	<path fill="none" stroke="#FFFFFF" stroke-width="2.5595" stroke-miterlimit="10" d="M244.741,169.43"/>
	
		<line fill="none" stroke="#FFFFFF" stroke-width="2.5595" stroke-miterlimit="10" x1="233.426" y1="227.538" x2="223.489" y2="227.538"/>
	<path fill="none" stroke="#FFFFFF" stroke-width="2.5595" stroke-miterlimit="10" d="M223.489,233.642"/>
	<path fill="none" stroke="#FFFFFF" stroke-width="2.5595" stroke-miterlimit="10" d="M244.741,233.642"/>
</g>
<g>
	<g>
		<g>
			<path fill="#EAECED" d="M485.258,227.27L485.258,227.27l-3.446-26.564h-43.87l-3.502,27.003
				c-1.663,4.501-6.721,9.162-6.721,10.318v1.437c0,1.191,1.198,2.159,2.678,2.159h58.96c1.479,0,2.678-0.968,2.678-2.159v-1.437
				C492.034,236.833,486.735,231.904,485.258,227.27z"/>
		</g>
		<g>
			<path fill="#2B3E4F" d="M568.902,198.096c0,2.812-2.301,5.115-5.115,5.115H355.966c-2.814,0-5.116-2.303-5.116-5.115V62.155
				c0-2.813,2.302-5.115,5.116-5.115h207.821c2.814,0,5.115,2.302,5.115,5.115V198.096z"/>
		</g>
		<g>
			<rect x="360.371" y="66.902" fill="#A5A1A2" width="200.616" height="124.364"/>
		</g>
		<g opacity="0.1">
			<path fill="#FFFFFF" d="M549.276,202.17h15.313c2.813,0,5.116-2.302,5.116-5.114V61.115c0-2.813-2.303-5.115-5.116-5.115h-74.111
				L549.276,202.17z"/>
		</g>
	</g>
	<g>
		<polygon fill="#CAD1D5" points="437.946,203.713 437.05,210.63 482.715,210.63 481.816,203.713 		"/>
	</g>
</g>
<g>
	<g>
		<path fill="#BE2327" d="M592.481,234.703c0,1.89-1.168,3.427-2.607,3.427h-28.689c-1.438,0-2.608-1.537-2.608-3.427v-35.979
			h33.905V234.703z"/>
		<path fill="#696A6A" d="M596.865,209.765h-5.139v-3.426h6.853c1.891,0,3.427,1.536,3.427,3.426v8.567
			c0,4.732-3.836,8.566-8.566,8.566h-1.713v-3.426h1.713c2.84,0,5.14-2.302,5.14-5.141v-6.854
			C598.579,210.531,597.812,209.765,596.865,209.765"/>
	</g>
	<rect x="551.241" y="237.885" fill="#EAECED" width="48.717" height="2.584"/>
</g>
<polyline opacity="0.1" points="654.401,259.372 653.859,503.404 354.614,503.107 118.19,259.372 "/>
<g>
	<g>
		<path fill="#FFFFFF" d="M579.672,209.512c0.299-0.281,0.589-0.446,0.869-0.493c0.281-0.049,0.553-0.08,0.817-0.097
			c-0.013,0.222-0.083,0.559-0.21,1.003c-0.128,0.446-0.281,0.932-0.46,1.453c-0.18,0.521-0.368,1.038-0.567,1.55
			c-0.2,0.512-0.358,0.955-0.474,1.33c-0.065,0.223-0.144,0.463-0.238,0.721c-0.095,0.261-0.195,0.54-0.3,0.846
			c0.153,0.001,0.361-0.032,0.628-0.101c0.264-0.068,0.56-0.12,0.887-0.156c0.325-0.037,0.666-0.042,1.022-0.012
			c0.355,0.03,0.71,0.148,1.063,0.356c0.01,0.031,0.038,0.076,0.083,0.139c0.044,0.062,0.077,0.123,0.098,0.185
			c0.018,0.06,0.008,0.106-0.034,0.137c-0.04,0.03-0.126,0.023-0.258-0.019c-0.264-0.085-0.63-0.095-1.1-0.028
			c-0.469,0.065-0.932,0.172-1.392,0.318c-0.46,0.148-0.877,0.323-1.252,0.526c-0.373,0.205-0.611,0.408-0.716,0.61
			c0.062-0.07,0.092-0.367,0.143-0.417c0.521-0.495,0.146,0.157,0.072,0.299c-0.417,0.758-0.823,1.584-1.22,2.479
			c-0.396,0.896-0.965,1.986-1.701,3.269c-0.604,1.021-1.102,1.802-1.495,2.342c-0.392,0.538-0.741,0.941-1.045,1.208
			c-0.303,0.267-0.585,0.453-0.845,0.562c-0.262,0.108-0.571,0.238-0.928,0.387c-0.247,0.078-0.566,0.116-0.964,0.118
			c-0.397,0-0.859-0.135-1.385-0.406c-1.031-0.532-1.338-1.675-0.919-3.43c0.271-0.678,0.576-1.27,0.913-1.774
			c0.336-0.505,0.691-0.943,1.062-1.314c0.371-0.374,0.736-0.697,1.095-0.972c0.359-0.277,0.683-0.545,0.971-0.805
			c0.349-0.23,0.703-0.459,1.062-0.684s0.757-0.448,1.191-0.672c0.436-0.223,0.924-0.465,1.465-0.723
			c0.543-0.259,1.162-0.54,1.858-0.849c0.104-0.303,0.215-0.593,0.33-0.864c0.074-0.243,0.165-0.48,0.268-0.709
			c0.105-0.227,0.179-0.406,0.221-0.538c0.126-0.395,0.267-0.828,0.421-1.3c0.152-0.472,0.295-0.937,0.429-1.391
			c0.132-0.457,0.248-0.87,0.35-1.24C579.588,209.986,579.65,209.705,579.672,209.512z M570.183,221.975
			c-0.578,0.828-0.975,1.609-1.187,2.344c-0.212,0.735-0.189,1.349,0.068,1.84c0.122,0.165,0.3,0.327,0.536,0.488
			c0.238,0.16,0.474,0.262,0.707,0.305c0.649,0.028,1.274-0.251,1.871-0.84c0.597-0.588,1.173-1.321,1.729-2.199
			c0.555-0.88,1.078-1.831,1.567-2.859c0.492-1.026,0.965-1.984,1.424-2.874c0.084-0.214,0.113-0.32,0.088-0.32
			s-0.115,0.025-0.269,0.073c-0.592,0.207-1.203,0.462-1.833,0.765c-0.63,0.302-1.241,0.634-1.834,0.993
			c-0.596,0.358-1.142,0.736-1.641,1.132C570.912,221.218,570.504,221.603,570.183,221.975z"/>
		<path fill="#FFFFFF" d="M570.157,228.196L570.157,228.196c-0.423,0-0.914-0.142-1.463-0.425c-1.104-0.568-1.444-1.786-1.008-3.621
			l0.003-0.012l0.005-0.012c0.275-0.687,0.589-1.295,0.931-1.806c0.34-0.511,0.704-0.962,1.081-1.34
			c0.375-0.375,0.748-0.709,1.113-0.986c0.352-0.271,0.675-0.539,0.96-0.797l0.01-0.009l0.012-0.008
			c0.343-0.227,0.701-0.457,1.064-0.684c0.363-0.229,0.769-0.456,1.203-0.68c0.43-0.222,0.925-0.467,1.472-0.725
			c0.515-0.247,1.103-0.515,1.793-0.82c0.097-0.278,0.2-0.546,0.307-0.798c0.075-0.247,0.166-0.488,0.273-0.72
			c0.102-0.22,0.173-0.396,0.213-0.521c0.146-0.459,0.285-0.884,0.42-1.3c0.151-0.467,0.295-0.934,0.427-1.387
			c0.133-0.456,0.25-0.873,0.35-1.236c0.099-0.361,0.16-0.638,0.182-0.819l0.007-0.062l0.045-0.043
			c0.321-0.304,0.645-0.485,0.958-0.536c0.282-0.049,0.563-0.082,0.833-0.101l0.193-0.012l-0.012,0.193
			c-0.013,0.238-0.085,0.578-0.216,1.042c-0.129,0.446-0.283,0.938-0.462,1.459c-0.18,0.521-0.372,1.045-0.57,1.557
			c-0.196,0.502-0.354,0.945-0.47,1.316c-0.066,0.229-0.146,0.475-0.241,0.733c-0.07,0.193-0.142,0.394-0.212,0.592
			c0.099-0.016,0.21-0.04,0.337-0.072c0.271-0.069,0.576-0.123,0.909-0.161c0.339-0.038,0.691-0.042,1.057-0.012
			c0.379,0.031,0.762,0.16,1.137,0.38l0.057,0.033l0.02,0.063c0,0,0.011,0.023,0.057,0.088c0.056,0.075,0.097,0.153,0.122,0.231
			c0.042,0.132,0.007,0.254-0.094,0.327c-0.046,0.035-0.106,0.052-0.177,0.052c-0.062,0-0.141-0.014-0.236-0.045
			c-0.234-0.075-0.583-0.084-1.021-0.021c-0.456,0.062-0.914,0.168-1.364,0.312c-0.446,0.144-0.856,0.315-1.222,0.516
			c-0.118,0.064-0.225,0.13-0.314,0.194c-0.032,0.063-0.065,0.125-0.091,0.172c-0.01,0.021-0.02,0.038-0.026,0.052l-0.002,0.003
			c-0.411,0.75-0.819,1.582-1.213,2.468c-0.399,0.9-0.975,2.005-1.711,3.285c-0.604,1.021-1.108,1.814-1.503,2.355
			c-0.398,0.547-0.759,0.964-1.07,1.236c-0.316,0.277-0.616,0.476-0.893,0.592l-0.312,0.13c-0.188,0.077-0.393,0.163-0.617,0.255
			l-0.014,0.007C570.907,228.154,570.576,228.196,570.157,228.196z M568.017,224.242c-0.396,1.678-0.124,2.732,0.835,3.226
			c0.498,0.257,0.937,0.387,1.306,0.387c0.374,0,0.679-0.036,0.903-0.106c0.224-0.093,0.427-0.177,0.61-0.253l0.312-0.13
			c0.241-0.102,0.512-0.282,0.8-0.533c0.293-0.257,0.635-0.655,1.02-1.182c0.389-0.531,0.887-1.314,1.483-2.326
			c0.729-1.269,1.3-2.363,1.694-3.251c0.235-0.53,0.475-1.042,0.72-1.528l-0.354,0.403l0.642-1.246
			c0.009-0.014,0.016-0.028,0.023-0.042c0.014-0.035,0.027-0.092,0.04-0.144c0.03-0.126,0.052-0.218,0.113-0.276
			c0.182-0.172,0.273-0.23,0.367-0.23c0.05,0,0.097,0.019,0.13,0.051l0.274-0.205l-0.052,0.108c0.355-0.186,0.747-0.347,1.172-0.481
			c0.468-0.15,0.944-0.261,1.42-0.325c0.212-0.03,0.406-0.045,0.58-0.045c0.229,0,0.43,0.026,0.595,0.078
			c0.013,0.005,0.026,0.009,0.038,0.012c-0.01-0.017-0.021-0.033-0.033-0.052c-0.035-0.045-0.061-0.083-0.077-0.118
			c-0.316-0.177-0.635-0.28-0.946-0.307c-0.342-0.028-0.675-0.025-0.989,0.012c-0.318,0.035-0.608,0.087-0.863,0.151
			c-0.275,0.07-0.49,0.105-0.658,0.105l-0.25-0.002l0.076-0.225c0.099-0.284,0.2-0.568,0.302-0.847c0.092-0.25,0.17-0.49,0.233-0.71
			l0.002-0.004c0.118-0.381,0.278-0.833,0.478-1.341c0.197-0.507,0.389-1.026,0.565-1.543s0.33-1.002,0.458-1.445
			c0.089-0.312,0.15-0.573,0.182-0.771c-0.194,0.019-0.395,0.045-0.597,0.08c-0.233,0.038-0.479,0.177-0.736,0.408
			c-0.028,0.197-0.088,0.462-0.182,0.807c-0.1,0.365-0.219,0.783-0.352,1.241c-0.133,0.457-0.278,0.927-0.43,1.396
			c-0.137,0.417-0.273,0.842-0.42,1.3c-0.045,0.141-0.12,0.322-0.229,0.559c-0.102,0.222-0.188,0.451-0.258,0.685l-0.007,0.017
			c-0.113,0.269-0.224,0.557-0.327,0.856l-0.024,0.07l-0.068,0.03c-0.715,0.316-1.321,0.593-1.852,0.846
			c-0.543,0.257-1.035,0.5-1.463,0.721c-0.425,0.218-0.821,0.442-1.179,0.664c-0.356,0.224-0.708,0.45-1.046,0.674
			c-0.29,0.262-0.616,0.533-0.972,0.805c-0.354,0.27-0.717,0.592-1.08,0.956c-0.361,0.363-0.711,0.797-1.039,1.29
			C568.581,223.001,568.281,223.582,568.017,224.242z M570.396,227.125L570.396,227.125c-0.031,0-0.063,0-0.095-0.002l-0.014-0.001
			l-0.012-0.002c-0.255-0.049-0.515-0.16-0.77-0.333c-0.252-0.171-0.446-0.347-0.578-0.527l-0.008-0.01l-0.006-0.012
			c-0.277-0.529-0.307-1.191-0.081-1.968c0.215-0.75,0.623-1.555,1.21-2.395l0.012-0.014c0.324-0.378,0.746-0.772,1.249-1.175
			c0.502-0.397,1.061-0.783,1.656-1.145c0.601-0.361,1.224-0.7,1.852-1.001c0.628-0.302,1.25-0.562,1.852-0.771h0.003
			c0.235-0.075,0.283-0.082,0.32-0.082l0,0c0.062,0,0.115,0.03,0.146,0.078c0.062,0.09,0.037,0.187-0.075,0.474l-0.008,0.017
			c-0.455,0.883-0.932,1.85-1.42,2.871c-0.49,1.024-1.021,1.991-1.578,2.874c-0.559,0.885-1.148,1.637-1.753,2.231
			C571.699,226.825,571.059,227.125,570.396,227.125z M570.327,226.781c0.596,0.022,1.177-0.244,1.731-0.791
			c0.587-0.576,1.16-1.307,1.705-2.17c0.55-0.871,1.073-1.828,1.558-2.841c0.488-1.021,0.967-1.986,1.422-2.871
			c0-0.002,0.001-0.003,0.001-0.005c-0.578,0.203-1.178,0.455-1.784,0.746c-0.618,0.297-1.231,0.629-1.821,0.985
			c-0.587,0.354-1.132,0.731-1.621,1.121c-0.485,0.385-0.889,0.764-1.2,1.123c-0.563,0.805-0.951,1.575-1.158,2.286
			c-0.196,0.684-0.18,1.255,0.052,1.703c0.108,0.146,0.271,0.292,0.485,0.437C569.909,226.648,570.121,226.741,570.327,226.781z"/>
	</g>
</g>
<g>
	<path fill="#2B3E4F" d="M396.576,121.017H237.778c-2.813,0-5.115,2.302-5.115,5.115v107.971h169.03V126.132
		C401.692,123.319,399.39,121.017,396.576,121.017z"/>
	<rect x="238.076" y="128.235" fill="#272821" width="155.796" height="100.305"/>
	<path fill="#EAECED" d="M215.418,234.104v3.058c0,0.998,0.774,2.036,1.729,2.323l4.663,1.396c0.955,0.285,2.537,0.518,3.533,0.518
		h183.665c0.998,0,2.58-0.232,3.534-0.518l4.663-1.396c0.954-0.287,1.728-1.325,1.728-2.323v-3.058H215.418z"/>
	<path fill="#CAD1D5" d="M302.086,234.104c0.116,1.305,1.2,2.331,2.535,2.331h25.111c1.336,0,2.419-1.026,2.535-2.331H302.086z"/>
	<path opacity="0.1" fill="#FFFFFF" d="M396.576,121.017h-73.14l45.49,113.086h32.767V126.132
		C401.692,123.319,399.39,121.017,396.576,121.017z"/>
</g>
<g>
	
		<rect x="479.146" y="214.037" fill="#69B023" stroke="#231F20" stroke-width="2.5595" stroke-miterlimit="10" width="8.89" height="8.889"/>
	
		<rect x="479.147" y="222.645" fill="#E2021A" stroke="#231F20" stroke-width="2.5595" stroke-miterlimit="10" width="8.888" height="8.89"/>
	
		<rect x="479.146" y="231.605" fill="#009EE0" stroke="#231F20" stroke-width="2.5595" stroke-miterlimit="10" width="8.89" height="8.891"/>
	
		<rect x="488.065" y="214.024" fill="#009EE0" stroke="#231F20" stroke-width="2.5595" stroke-miterlimit="10" width="8.89" height="8.888"/>
	
		<rect x="488.065" y="222.631" fill="#FFFFFF" stroke="#231F20" stroke-width="2.5595" stroke-miterlimit="10" width="8.89" height="8.89"/>
	
		<rect x="488.065" y="231.593" fill="#EC7414" stroke="#231F20" stroke-width="2.5595" stroke-miterlimit="10" width="8.89" height="8.89"/>
	
		<rect x="496.971" y="214.024" fill="#FFED04" stroke="#231F20" stroke-width="2.5595" stroke-miterlimit="10" width="8.89" height="8.888"/>
	
		<rect x="496.972" y="222.631" fill="#EC7414" stroke="#231F20" stroke-width="2.5595" stroke-miterlimit="10" width="8.89" height="8.89"/>
	
		<rect x="496.971" y="231.593" fill="#FFED04" stroke="#231F20" stroke-width="2.5595" stroke-miterlimit="10" width="8.89" height="8.89"/>
</g>
<circle opacity="0.1" fill="#3996D2" cx="410.101" cy="224.068" r="9.023"/>
<g>
	<path fill="#231F20" d="M400.853,221.617l-0.799-0.198c-0.699,2.816-0.21,5.652,1.15,7.95c1.356,2.3,3.594,4.074,6.372,4.763
		c2.779,0.689,5.585,0.167,7.86-1.231s4.034-3.676,4.732-6.49s0.208-5.65-1.15-7.948c-1.357-2.302-3.594-4.074-6.374-4.765
		c-2.777-0.689-5.583-0.166-7.858,1.233c-2.275,1.396-4.035,3.674-4.732,6.488L400.853,221.617l0.798,0.199
		c0.592-2.387,2.074-4.305,3.996-5.484c1.921-1.18,4.268-1.616,6.604-1.038c2.335,0.58,4.204,2.062,5.353,4.004
		c1.146,1.941,1.562,4.329,0.97,6.716c-0.594,2.388-2.076,4.304-3.998,5.483c-1.921,1.18-4.268,1.616-6.602,1.038
		c-2.335-0.579-4.204-2.062-5.354-4.002c-1.146-1.943-1.561-4.331-0.968-6.717L400.853,221.617z"/>
	<path fill="#231F20" d="M429.906,228.826l-0.798-0.198c-0.7,2.814-0.21,5.65,1.149,7.948c1.356,2.3,3.595,4.074,6.372,4.765
		c2.78,0.689,5.586,0.166,7.86-1.231c2.276-1.398,4.034-3.676,4.732-6.492c0.698-2.814,0.21-5.65-1.149-7.948
		c-1.358-2.3-3.595-4.074-6.372-4.763c-2.779-0.69-5.586-0.167-7.862,1.231c-2.274,1.396-4.032,3.676-4.73,6.49L429.906,228.826
		l0.799,0.198c0.591-2.388,2.074-4.304,3.996-5.485c1.923-1.178,4.267-1.615,6.604-1.036c2.334,0.579,4.204,2.061,5.352,4.002
		c1.146,1.941,1.562,4.329,0.971,6.717c-0.592,2.387-2.077,4.305-3.998,5.484s-4.268,1.616-6.602,1.038
		c-2.335-0.58-4.205-2.062-5.354-4.004c-1.145-1.941-1.56-4.329-0.968-6.716L429.906,228.826z"/>
	<path fill="#231F20" d="M430.514,230.14c0.171-0.695,0.131-1.412-0.063-2.087c-0.294-1.015-0.924-1.949-1.771-2.714
		c-0.85-0.764-1.927-1.36-3.145-1.663c-1.618-0.4-3.236-0.23-4.558,0.361c-0.663,0.299-1.253,0.705-1.728,1.212
		c-0.472,0.506-0.828,1.118-1,1.806l1.598,0.396c0.097-0.39,0.299-0.751,0.605-1.079c0.456-0.492,1.151-0.896,1.975-1.104
		c0.821-0.212,1.768-0.231,2.713,0.003c1.256,0.311,2.339,1.047,3.022,1.908c0.342,0.43,0.581,0.889,0.708,1.326
		c0.127,0.442,0.14,0.857,0.047,1.238L430.514,230.14z"/>
	<path fill="#231F20" d="M397.818,220.864c-0.144,0.583,0.126,1.153,0.603,1.271l1.463,0.363c0.479,0.118,0.983-0.258,1.129-0.842
		c0.143-0.583-0.127-1.151-0.604-1.271l-1.463-0.362C398.468,219.904,397.963,220.283,397.818,220.864z"/>
	<path fill="#231F20" d="M448.146,233.179c-0.146,0.583,0.125,1.151,0.602,1.27l1.463,0.362c0.479,0.119,0.983-0.257,1.128-0.84
		c0.146-0.584-0.126-1.152-0.604-1.271l-1.462-0.363C448.795,232.219,448.291,232.596,448.146,233.179z"/>
</g>
<circle opacity="0.1" fill="#3996D2" cx="439.575" cy="230.686" r="9.022"/>
<rect x="205.281" y="144.668" fill="#FFFFFF" width="15.64" height="19.55"/>
<rect x="360.356" y="67.152" fill="#DEDEDE" width="175.548" height="7.679"/>
<rect x="360.498" y="85.353" fill="#DEDEDE" width="200.718" height="7.679"/>
<rect x="534.064" y="61.417" transform="matrix(0.996 0.0893 -0.0893 0.996 9.0502 -48.7917)" fill="#FFEF8F" width="31.579" height="30.676"/>
<line fill="none" stroke="#070600" stroke-width="0.8532" stroke-miterlimit="10" x1="541.562" y1="67.736" x2="558.443" y2="69.243"/>
<line fill="none" stroke="#070600" stroke-width="0.8532" stroke-miterlimit="10" x1="541.26" y1="71.045" x2="558.144" y2="72.551"/>
<line fill="none" stroke="#070600" stroke-width="0.8532" stroke-miterlimit="10" x1="540.96" y1="74.053" x2="557.842" y2="75.559"/>
<rect x="366.947" y="78.288" fill="#FFFFFF" width="8.246" height="3.892"/>
<rect x="378.038" y="78.288" fill="#FFFFFF" width="8.247" height="3.892"/>
<rect x="395.955" y="78.288" fill="#FFFFFF" width="8.246" height="3.892"/>
<rect x="407.046" y="78.288" opacity="0.3" fill="#FFFFFF" width="19.125" height="3.892"/>
<rect x="435.841" y="78.288" fill="#FFFFFF" width="8.246" height="3.892"/>
<rect x="446.932" y="78.288" opacity="0.3" fill="#FFFFFF" width="8.247" height="3.892"/>
<rect x="360.498" y="93.032" fill="#EEEEEE" width="7.263" height="27.946"/>
<rect x="362.255" y="95.538" fill="#BCBEC0" width="3.554" height="3.053"/>
<rect x="362.255" y="101.104" fill="#BCBEC0" width="3.554" height="3.053"/>
<rect x="362.309" y="106.735" fill="#BCBEC0" width="3.554" height="3.053"/>
<rect x="362.309" y="112.301" fill="#BCBEC0" width="3.553" height="3.053"/>
<rect x="362.255" y="117.633" fill="#BCBEC0" width="3.554" height="3.053"/>
<rect x="518.9" y="93.032" fill="#EEEEEE" width="41.961" height="45.152"/>
<rect x="521.999" y="96.634" fill="#BCBEC0" width="36.424" height="16.218"/>
<rect x="238.069" y="128.295" fill="#DEDEDE" width="155.855" height="7.679"/>
<rect x="249.067" y="144.648" fill="none" width="144.611" height="11.518"/>
<text transform="matrix(1 0 0 1 249.0679 153.0781)" fill="#DEDEDE" font-family="'OpenSans'" font-size="11.0912">&lt; – &gt;</text>
<rect x="259.305" y="157.872" fill="none" width="134.373" height="11.518"/>
<text transform="matrix(1 0 0 1 259.3057 166.3027)" fill="#DEDEDE" font-family="'OpenSans'" font-size="11.0912">&lt; – &gt;</text>
<line fill="none" stroke="#DEDEDE" stroke-width="0.8532" stroke-miterlimit="10" x1="259.305" y1="174.082" x2="381.734" y2="174.082"/>
<line fill="none" stroke="#DEDEDE" stroke-width="0.8532" stroke-miterlimit="10" x1="259.305" y1="182.614" x2="381.308" y2="182.614"/>
<line fill="none" stroke="#DEDEDE" stroke-width="0.8532" stroke-miterlimit="10" x1="259.732" y1="191.146" x2="380.881" y2="191.146"/>
<rect x="259.731" y="197.117" fill="none" width="134.374" height="11.518"/>
<text transform="matrix(1 0 0 1 259.7324 205.5479)" fill="#DEDEDE" font-family="'OpenSans'" font-size="11.0912">&lt; /– &gt;</text>
<rect x="249.494" y="210.768" fill="none" width="134.374" height="11.518"/>
<text transform="matrix(1 0 0 1 249.4941 219.1982)" fill="#DEDEDE" font-family="'OpenSans'" font-size="11.0912">&lt; /– &gt;</text>
</svg>
